<?xml version="1.0" encoding="UTF-8" standalone="no"?>
<svg xmlns="http://www.w3.org/2000/svg" width="400" height="300" viewBox="0 0 400 300">
  <rect width="400" height="300" fill="#000" />
  
  <!-- Upside Down Trees -->
  <g stroke="#444" stroke-width="2">
    <path d="M50,300 L50,200 L30,220 L50,180 L70,220 L50,200" fill="none"/>
    <path d="M100,300 L100,150 L80,170 L100,130 L120,170 L100,150" fill="none"/>
    <path d="M150,300 L150,180 L130,200 L150,160 L170,200 L150,180" fill="none"/>
    <path d="M200,300 L200,130 L180,150 L200,110 L220,150 L200,130" fill="none"/>
    <path d="M250,300 L250,190 L230,210 L250,170 L270,210 L250,190" fill="none"/>
    <path d="M300,300 L300,140 L280,160 L300,120 L320,160 L300,140" fill="none"/>
    <path d="M350,300 L350,170 L330,190 L350,150 L370,190 L350,170" fill="none"/>
  </g>
  
  <!-- Portal/Light -->
  <circle cx="200" cy="120" r="60" fill="#222"/>
  <circle cx="200" cy="120" r="50" fill="#333"/>
  <circle cx="200" cy="120" r="40" fill="#444"/>
  <circle cx="200" cy="120" r="30" fill="#555"/>
  <circle cx="200" cy="120" r="20" fill="#777"/>
  <circle cx="200" cy="120" r="10" fill="#aaa"/>
  
  <!-- Small lights/particles -->
  <g fill="#fff">
    <circle cx="190" cy="100" r="2"/>
    <circle cx="210" cy="110" r="2"/>
    <circle cx="180" cy="120" r="2"/>
    <circle cx="220" cy="130" r="2"/>
    <circle cx="200" cy="140" r="2"/>
  </g>
</svg>